<svg id="Calque_1" data-name="Calque 1" xmlns="http://www.w3.org/2000/svg" xmlns:xlink="http://www.w3.org/1999/xlink" viewBox="0 0 413.41 368.88"><defs><style>.cls-1{fill:#7c7c7b;}.cls-2{fill:#fffdd0;}.cls-3{fill:#ff0;}.cls-4{fill:#f4ee19;}.cls-5{fill:none;stroke:#efec89;stroke-miterlimit:10;stroke-width:3px;}</style><symbol id="Eclaboussures_2" data-name="Eclaboussures 2" viewBox="0 0 63.36 44.28"><path class="cls-1" d="M.52,33.45c-.05.1,0,.15.1.26L.26,34c.15.1.1-.47-.26-.63C.1,33.55.36,33.4.52,33.45Z"/><path class="cls-1" d="M5.39.38H5.5V.75A.19.19,0,0,1,5.39.38Z"/><path class="cls-1" d="M6.12.64,6,.75,6.22,1,6.74.64,6.63.49l.11.15c.21-.1,0-.36.1-.51-.31-.21-.67.1-1,.36L5.75.38C6.27,0,6.89.13,7.62.23a.73.73,0,0,1,.26.62,1.88,1.88,0,0,1-2.13,0Z"/><polygon class="cls-1" points="6.84 1.11 6.74 1.01 7 0.75 6.84 1.11"/><path class="cls-1" d="M16.07,37.8c.67.21.62.88.36,1.35-.41.05-.67.46-1.08.52,0-.11.05-.88-.52-.63.46.26-.26.57-.62.63l.36-.26c-.26-.37-.62-.11-1-.37l.37-.25-.47-.37C14.31,38.16,15,37.59,16.07,37.8Z"/><path class="cls-1" d="M15.35,11c.93-.11,1.71-.63,2.33.36.1.57-.57.93-1,1.09H15.45l.1-.11-.46-.51.1-.11-.36-.26C15.19,11.42,15.61,11.11,15.35,11Z"/><path class="cls-1" d="M19.7,38.06c.21.1.05.42.1.62-.36.47-.93.36-1.5.36.31-.2.52.06.78-.36l-.26-.52c-.16.21-.47.37-.63.16A1.46,1.46,0,0,1,19.7,38.06Z"/><path class="cls-1" d="M20.32,7l.21.36-.62.36c.1-.05.2-.1.15-.21l-.15-.15-.47.52c-.1-.26-.36-.11-.52-.16h.37V7.48l.15.11.26-.52H18.46C19.08,7,19.7,6.66,20.32,7Z"/><path class="cls-1" d="M54,5c.26-.83-.72-.31-1-.63.26-.25.78.32,1-.25a.91.91,0,0,0-1.13-.26h-.11c.57-.47,1.92.05,2.23-1-.26,0-.52-.41-.26-.62.88,0,1.19-.83,2-1L56.39,1A11,11,0,0,1,58.72.88C58.15,0,60,.78,59.86,0c.42.57,1,.88,1.35.52.88.52,2,1.45,2,2.59.37.62-.15.73-.26,1.5l-.15-.15c0,.26-.42.52-.11.78a1.3,1.3,0,0,0-1,.72c0,.52-.47,1-.88.88-.16.1-.11.26-.11.36a.73.73,0,0,0-.62.26c-1,.37-2.23.42-3.26,1.35l.36-.2L57,8.19l-.88.88c.1-.46.78-.88.47-1.35-.37-.31-.73,0-1.09.11l.36-.26c-.36-.42-1,.31-1.5-.11.62-.72.1-1.14-.47-1.5H52.66A1.33,1.33,0,0,0,54,5Z"/><path class="cls-1" d="M26.28,11c-.15,0-.15.2-.15.36.21.36.57.26.88.36l.16-.36c-.26-.36-.47.21-.63-.26.26-.57.88,0,1.35,0,.31.73-.57.78-1,.73-.57.2-.83-.32-1.25-.47C25.77,11.27,26,10.8,26.28,11Z"/><path class="cls-1" d="M34.63,12.93c.62.25,1.19,1,1,1.34.11.31-.2.47-.25.62.62.11,1.35.68.88,1.4-2,.94-3.73-.56-4.72-1.14l.36-.36-.52-.26A3.69,3.69,0,0,1,34.63,12.93Z"/><path class="cls-1" d="M29.55,27.42h-.26c.37-.1.57-.46.88-.72-.15-.16-.26-.31-.51-.26l-.11.1c.11-.21.88,0,.62-.62l-.15-.1c1.14.15,1.35-.88,2.38-.73.83-1,1.87.16,2.6.1-.06.42.41.57.62.89V28.2c-.42.21-.62.62-1,1.09a3,3,0,0,1,1.51,1.5c.46,1.19-.84,1.3-1.14,2.13-.52-.31-1.14,0-1.61.26l-.26.2c.46-.93-1-.62-1.61-.82h-.36c.21-.21.62-.16.62-.52H30.9c.16-.06.36-.06.52-.26l-.26-.37c.21.06.26-.15.36-.25s-.15-.27-.26-.37l.42-.26c-.31-.31-.68-.36-.52-.88l-1.25-.21.37-.25a.6.6,0,0,0-.62-.26l-.11.1.26-.36-.88-.11C29,28.15,30.23,28,29.55,27.42Z"/><path class="cls-1" d="M35.36,42.05l-.26-.26c.72-.41,1.35-1.71,2.74-1.6.83-.06,1.3.36,2.13.72.42,1.3-.15,2-1,2.85-.63-.26-1.77.47-2.49.36l-.16.16.37-.36L35,43.4C35.25,43,35.15,42.47,35.36,42.05Z"/><rect class="cls-1" x="36.24" y="24.02" width="0.36" height="0.11"/><path class="cls-1" d="M43.34,20.75a.42.42,0,0,1-.15.26c.15-.21-.21-.67-.47-.36C42.87,20.49,43.34,20.39,43.34,20.75Z"/><path class="cls-1" d="M47.8,21.27l-.11-.16c-.15,0,.63-.25.37-.62,1.35-.83,1.81,1.71,3.11.26.72.73,1.87.36,2.12,1.51.06.88-.77,1.34-1.5,1.6l-1.14.26c.05-.21-.21-.31-.36-.26h-.52c.36-.72-.73-.26-1-.72h.16c-.1-.78-.93-.37-1.25-1L47.28,22C47.23,21.63,47.64,21.53,47.8,21.27Z"/><path class="cls-1" d="M52.54,38.22c-.36-.16.62-.16.1-.52.57,0,.47-.62.89-.73l-.11-.1c.88.36.68-1.3,2.08-.52.62-.72,1.09.62,1.66.36a2.09,2.09,0,0,1,.46,2.49c-.52.83-.36.26-1.09,1.14l-.41.36c-.26-.83-.68.88-1.09,0-.41.06-.67.37-1.14.26A.39.39,0,0,0,54,40.6c-.25-.26-.62-.1-.88-.16l.11-.36-.63-.26c.16,0,.16-.21.16-.36l-.41-.11C52.13,38.73,53.27,38.79,52.54,38.22Z"/><polygon class="cls-1" points="52.62 35.2 51.74 35.3 52.26 35.2 52.62 35.2"/></symbol></defs><title>banane</title><path class="cls-2" d="M121.51,178.37c24.5-42.8,372.9,92.31,408.85,219.6,2.24,7.95,6.56,24-1.63,33.65-25.89,30.5-150.8-33.85-215.67-74.38C232.86,307.14,105.35,206.58,121.51,178.37Z" transform="translate(-120.11 -85.49)"/><path class="cls-3" d="M309.54,112.87" transform="translate(-120.11 -85.49)"/><path class="cls-3" d="M301.79,155.13" transform="translate(-120.11 -85.49)"/><path class="cls-4" d="M322,224.55S224.32,92.45,341.93,86.82s97.18,8.45,97.18,8.45-94.36,37.32-85.21,49.29,32,113.34,32,113.34,162.37,93.8,145.81,168.75a21.7,21.7,0,0,1-5.37,10.69c-33.34,35.31-188.67-63.86-252-106.12,11.52,60.09-16.29,110.67-53.5,121.09-26.5,7.42-51.87-7.17-60.56-12.74,6.11-1.67,51.86-14.95,71.83-61.2,14.92-34.56,6.2-66.07,3.46-74.81" transform="translate(-120.11 -85.49)"/><line class="cls-5" x1="5.53" y1="91.77" x2="158.07" y2="175.82"/><use width="63.36" height="44.28" transform="translate(167.26 196.28)" xlink:href="#Eclaboussures_2"/><use width="63.36" height="44.28" transform="translate(282.41 248.04)" xlink:href="#Eclaboussures_2"/><use width="63.36" height="44.28" transform="translate(229.11 238.84)" xlink:href="#Eclaboussures_2"/><use width="63.36" height="44.28" transform="translate(328.88 299.56)" xlink:href="#Eclaboussures_2"/><use width="63.36" height="44.28" transform="translate(161.24 42.8)" xlink:href="#Eclaboussures_2"/><use width="63.36" height="44.28" transform="matrix(0.16, -0.26, 0.09, 0.06, 105.96, 343.96)" xlink:href="#Eclaboussures_2"/><use width="63.36" height="44.28" transform="matrix(0.16, -0.26, 0.09, 0.06, 129.11, 317.27)" xlink:href="#Eclaboussures_2"/><use width="63.36" height="44.28" transform="matrix(0.16, -0.26, 0.09, 0.06, 119.78, 330.48)" xlink:href="#Eclaboussures_2"/><use width="63.36" height="44.28" transform="matrix(0.16, -0.26, 0.09, 0.06, 141.34, 308.28)" xlink:href="#Eclaboussures_2"/><use width="63.36" height="44.28" transform="matrix(0.16, -0.26, 0.09, 0.06, 90.51, 336.59)" xlink:href="#Eclaboussures_2"/></svg>