<svg id="Calque_1" data-name="Calque 1" xmlns="http://www.w3.org/2000/svg" viewBox="0 0 72.68 67.18"><defs><style>.cls-1,.cls-4{fill:#1d1d1b;}.cls-1,.cls-2{stroke:#1d1d1b;stroke-width:0.57px;}.cls-1,.cls-2,.cls-5{stroke-miterlimit:10;}.cls-2{fill:#fff;}.cls-3{fill:#312783;}.cls-5{fill:none;stroke:#575756;stroke-width:0.4px;}</style></defs><title>araignées</title><ellipse class="cls-1" cx="36.68" cy="53.42" rx="20.37" ry="13.48"/><circle class="cls-2" cx="30.79" cy="57.81" r="4.39"/><circle class="cls-2" cx="41.08" cy="57.81" r="4.39"/><circle class="cls-3" cx="31.79" cy="58.81" r="1"/><circle class="cls-3" cx="39.08" cy="58.81" r="1"/><path class="cls-4" d="M48.79,124.24,58.93,111.3l1.45-1.84h-2l9.19,7.39c1.41,1.13,3.43-.86,2-2l-9.18-7.39a1.45,1.45,0,0,0-2,0L48.23,120.39l-1.44,1.84a1.47,1.47,0,0,0,0,2,1.43,1.43,0,0,0,2,0Z" transform="translate(-46.39 -62.42)"/><path class="cls-4" d="M53.26,128.16,60.42,119l1-1.3H60l6.48,5.21c1,.8,2.42-.61,1.42-1.41l-6.49-5.22a1,1,0,0,0-1.41,0l-7.16,9.13-1,1.3a1,1,0,0,0,0,1.42,1,1,0,0,0,1.42,0Z" transform="translate(-46.39 -62.42)"/><path class="cls-4" d="M50.5,115.25l10.14-12.94,1.44-1.84h-2l9.18,7.39c1.41,1.13,3.43-.86,2-2l-9.19-7.39a1.44,1.44,0,0,0-2,0L49.94,111.4l-1.45,1.84a1.48,1.48,0,0,0,0,2,1.44,1.44,0,0,0,2,0Z" transform="translate(-46.39 -62.42)"/><path class="cls-4" d="M118.67,116.24,108.52,103.3l-1.44-1.84a1.44,1.44,0,0,0-2,0l-9.19,7.39c-1.42,1.14.6,3.14,2,2l9.18-7.39h-2l10.14,12.93,1.44,1.84a1.43,1.43,0,0,0,2,0,1.46,1.46,0,0,0,0-2Z" transform="translate(-46.39 -62.42)"/><path class="cls-4" d="M113.12,126.74,106,117.61l-1-1.3a1,1,0,0,0-1.41,0L97,121.53c-1,.8.42,2.21,1.42,1.41l6.48-5.21h-1.41l7.16,9.13,1,1.3a1,1,0,0,0,1.42,0,1,1,0,0,0,0-1.42Z" transform="translate(-46.39 -62.42)"/><path class="cls-4" d="M118.67,123.63l-10.15-12.94-1.44-1.84a1.44,1.44,0,0,0-2,0l-9.19,7.39c-1.42,1.14.6,3.14,2,2l9.18-7.38h-2l10.14,12.93,1.44,1.84a1.43,1.43,0,0,0,2,0,1.46,1.46,0,0,0,0-2Z" transform="translate(-46.39 -62.42)"/><line class="cls-5" x1="36.68" y1="41.94" x2="36.68"/></svg>