<svg id="Calque_1" data-name="Calque 1" xmlns="http://www.w3.org/2000/svg" xmlns:xlink="http://www.w3.org/1999/xlink" viewBox="0 0 132.77 184.69"><defs><style>.cls-1{fill:#ead6c5;stroke:#575756;stroke-width:1.92px;}.cls-1,.cls-3,.cls-4{stroke-miterlimit:10;}.cls-2,.cls-4{fill:#1d1d1b;}.cls-3,.cls-8{fill:#e20613;}.cls-3,.cls-4{stroke:#1d1d1b;}.cls-3{stroke-width:3.32px;}.cls-4{stroke-width:2.72px;}.cls-5{fill:#fff;}.cls-6{fill:#373735;}.cls-7{fill:url(#Dégradé_sans_nom_14);}</style><linearGradient id="Dégradé_sans_nom_14" x1="26.9" y1="106.53" x2="37.1" y2="106.53" gradientUnits="userSpaceOnUse"><stop offset="0" stop-color="#fff"/><stop offset="0" stop-color="#6a1410"/></linearGradient></defs><title>mechant</title><path class="cls-1" d="M521.11,233.33c4.37,44.51-22.71,97.79-57,100.51-36.51,2.9-76.31-51.83-72-101.55,3.21-36.84,31.51-81,66.78-80S517.75,199,521.11,233.33Z" transform="translate(-389.76 -150.22)"/><path class="cls-2" d="M454.76,204.68l-26.57-5.16-3.77-.73a6.64,6.64,0,0,0-5.58,1.5c-1.18,1.12-.92,2.61.79,2.94l26.57,5.16,3.77.73a6.67,6.67,0,0,0,5.58-1.49c1.18-1.13.92-2.62-.79-2.95Z" transform="translate(-389.76 -150.22)"/><path class="cls-3" d="M431.16,295.62s56.62-53.36,51.72-8.37a48.52,48.52,0,0,0-14.73-4.06C449.74,281.22,436.25,291.29,431.16,295.62Z" transform="translate(-389.76 -150.22)"/><path class="cls-4" d="M392.32,186s34.08-52.17,96.92-28S392.32,186,392.32,186Z" transform="translate(-389.76 -150.22)"/><path class="cls-2" d="M434.45,221.58c-2.08-2-5.8-6.56-4.18-9.45,1.48-2.64,6.78-2.71,10.27-1.11,6.18,2.84,8.95,11.94,6.49,14.43C444.88,227.63,438.29,225.2,434.45,221.58Z" transform="translate(-389.76 -150.22)"/><ellipse class="cls-5" cx="441.19" cy="220.67" rx="3.62" ry="4.96" transform="translate(-295.98 420.66) rotate(-71.8)"/><path class="cls-5" d="M447.73,154.31l-4.4,9.24a1.5,1.5,0,0,0,.88,2.16l12.57,5.06-.88-2.16L451.73,178c-.76,1.71,1.77,3.21,2.54,1.48l4.17-9.34a1.5,1.5,0,0,0-.88-2.16L445,162.88l.88,2.16q2.2-4.64,4.4-9.25c.81-1.7-1.73-3.19-2.54-1.48Z" transform="translate(-389.76 -150.22)"/><path class="cls-5" d="M462.63,164.19l-9.46-3.43a1.5,1.5,0,0,0-1.81,1l-3.95,9.94,2.16-.88-9.28-4.11c-1.72-.76-3.21,1.77-1.49,2.54l9.29,4.11a1.51,1.51,0,0,0,2.16-.88l3.94-9.94-1.81,1,9.47,3.43c1.78.64,2.55-2.2.78-2.84Z" transform="translate(-389.76 -150.22)"/><circle class="cls-2" cx="51.43" cy="70.44" r="2"/><path class="cls-2" d="M481.34,212.1c3.58-1.48,8.86-.81,10.13,2.05,1.37,3.06-2.46,7.2-5,9-3.44,2.45-9.11,3.95-11,1.75C473.15,222.36,475.81,214.4,481.34,212.1Z" transform="translate(-389.76 -150.22)"/><ellipse class="cls-5" cx="481.55" cy="220.67" rx="4.96" ry="3.62" transform="matrix(0.97, -0.26, 0.26, 0.97, -430.4, -18.44)"/><circle class="cls-2" cx="91.42" cy="70.44" r="2"/><path class="cls-6" d="M447.84,261.54a5.61,5.61,0,0,0,0,.93A6.11,6.11,0,0,0,447.84,261.54Z" transform="translate(-389.76 -150.22)"/><polygon class="cls-6" points="58.78 109.37 58.77 109.72 58.87 108.86 58.78 109.37"/><path class="cls-6" d="M449.2,259.61c-.06-1.46-.24.23-.36-.28l0-.34-.05,1.18C448.91,260,449.1,259.2,449.2,259.61Z" transform="translate(-389.76 -150.22)"/><path class="cls-6" d="M449.55,262.76c0-.56.07-.49-.08-.17,0,.06,0,.09,0,.14S449.52,262.72,449.55,262.76Z" transform="translate(-389.76 -150.22)"/><path class="cls-6" d="M449.48,262.73c-.07,0,0,.48,0,0Z" transform="translate(-389.76 -150.22)"/><path class="cls-6" d="M449.8,262.4l-.09.51a3.62,3.62,0,0,1,.07.66A3.08,3.08,0,0,0,449.8,262.4Z" transform="translate(-389.76 -150.22)"/><path class="cls-6" d="M449.89,261.34l-.05.21C449.85,261.7,449.86,261.74,449.89,261.34Z" transform="translate(-389.76 -150.22)"/><path class="cls-6" d="M449.74,262l.1-.46c0-.23,0-.7,0,.17C449.8,261.29,449.78,261.7,449.74,262Z" transform="translate(-389.76 -150.22)"/><path class="cls-6" d="M449.68,261.78a2.39,2.39,0,0,1,0-1C449.48,261,449.51,262,449.68,261.78Z" transform="translate(-389.76 -150.22)"/><path class="cls-6" d="M449.23,258.1l-.07-.43-.06.49C449.13,257.92,449.24,258.56,449.23,258.1Z" transform="translate(-389.76 -150.22)"/><path class="cls-6" d="M450.37,263.16c0-.31,0-.83,0-1.22l-.06.35A4.2,4.2,0,0,1,450.37,263.16Z" transform="translate(-389.76 -150.22)"/><path class="cls-6" d="M450.33,261.94l.1-.54C450.34,261.34,450.33,261.59,450.33,261.94Z" transform="translate(-389.76 -150.22)"/><polygon class="cls-6" points="60.14 109.5 59.98 110.62 60.17 109.48 60.14 109.5"/><polygon class="cls-6" points="60.99 112.97 60.94 113.69 61.04 112.61 60.99 112.97"/><path class="cls-6" d="M451,263.07c0,.6.06,1,0,1.38a5.39,5.39,0,0,0,.19-1.08C451.15,263.63,451.09,263.56,451,263.07Z" transform="translate(-389.76 -150.22)"/><path class="cls-6" d="M451.3,262.7c0,.14-.06.4-.09.67A5.76,5.76,0,0,0,451.3,262.7Z" transform="translate(-389.76 -150.22)"/><path class="cls-6" d="M450.61,261.56a5.48,5.48,0,0,0,.07.88l0-.87Z" transform="translate(-389.76 -150.22)"/><path class="cls-6" d="M450.64,261.54v0l.08.05Z" transform="translate(-389.76 -150.22)"/><path class="cls-6" d="M450.6,261.55h0C450.6,261.47,450.6,261.44,450.6,261.55Z" transform="translate(-389.76 -150.22)"/><path class="cls-6" d="M450.17,260.51a5.45,5.45,0,0,0,.06-1.76C450.19,259.35,450.26,259.78,450.17,260.51Z" transform="translate(-389.76 -150.22)"/><path class="cls-6" d="M450.55,260.46l-.11-.2a7.33,7.33,0,0,1,0,.81Z" transform="translate(-389.76 -150.22)"/><polygon class="cls-6" points="60.84 109.96 60.78 110.24 60.82 110.31 60.84 109.96"/><path class="cls-6" d="M451.11,261.88c.05-.38.1-.41.16-.47s-.13-.26-.19-.26C451.07,261.42,451.05,261.91,451.11,261.88Z" transform="translate(-389.76 -150.22)"/><path class="cls-6" d="M450.88,261.64a.09.09,0,0,0,0-.05C450.89,261.52,450.88,261.49,450.88,261.64Z" transform="translate(-389.76 -150.22)"/><path class="cls-6" d="M451.83,261.42c0-.05,0-.11,0-.16v.15Z" transform="translate(-389.76 -150.22)"/><path class="cls-6" d="M451.07,261c0-.16-.07,0-.1.32,0-.09.07-.15.11-.15S451.09,260.94,451.07,261Z" transform="translate(-389.76 -150.22)"/><path class="cls-6" d="M451.45,262.29a4.79,4.79,0,0,0-.08-.48C451.4,262.09,451.44,262.52,451.45,262.29Z" transform="translate(-389.76 -150.22)"/><path class="cls-6" d="M450.91,261.83s0,0,0,0C450.92,262.06,450.92,262,450.91,261.83Z" transform="translate(-389.76 -150.22)"/><path class="cls-6" d="M450.91,261.83c0-.12,0-.34.06-.53a1.85,1.85,0,0,0-.08.29A1.66,1.66,0,0,1,450.91,261.83Z" transform="translate(-389.76 -150.22)"/><path class="cls-6" d="M452,255.81c0,.81-.13,1.56-.23.69a38.87,38.87,0,0,0,.05,4.76,4.6,4.6,0,0,1,.11-1.16,6.72,6.72,0,0,1-.15-1.77c.14-.41.12.29.19.72-.06-1,.18-1.47.14-2.95l-.12.52A7.36,7.36,0,0,0,452,255.81Z" transform="translate(-389.76 -150.22)"/><path class="cls-6" d="M451.62,261.17l0,.1a10.48,10.48,0,0,1,.15,1.1,6.33,6.33,0,0,0,.09-1l-.22-.12Z" transform="translate(-389.76 -150.22)"/><path class="cls-6" d="M451.38,261.28a16,16,0,0,0,.07-2.21c-.12.06-.09.74-.16,1.12.2-.22-.06.49.09,1a.52.52,0,0,1-.11.23c0,.11.07.24.1.4v-.05h0c0-.11,0-.18,0-.12h0c0-.13,0-.23,0-.34a.48.48,0,0,1,0,.34v.13h0l.21-.49C451.53,261.15,451.48,261.18,451.38,261.28Z" transform="translate(-389.76 -150.22)"/><path class="cls-6" d="M450.34,256.86a1.55,1.55,0,0,1,0,.21C450.36,257,450.37,256.88,450.34,256.86Z" transform="translate(-389.76 -150.22)"/><path class="cls-6" d="M450.43,257.39c0,.13,0,.48-.08.39a4.21,4.21,0,0,1,0-.71,3,3,0,0,0,0,1.06V258a9.92,9.92,0,0,1,.18,1.52C450.5,258.74,450.48,258.17,450.43,257.39Z" transform="translate(-389.76 -150.22)"/><path class="cls-6" d="M450.91,259.11l.17-.43-.09-.76v.45C450.9,258.2,450.92,258.76,450.91,259.11Z" transform="translate(-389.76 -150.22)"/><polygon class="cls-6" points="62.09 111.63 62.06 112.56 62.16 111.25 62.09 111.63"/><polygon class="cls-6" points="62.31 111.52 62.3 112.33 62.36 111.84 62.31 111.52"/><path class="cls-6" d="M464.69,251.71l.05-.23A1.55,1.55,0,0,0,464.69,251.71Z" transform="translate(-389.76 -150.22)"/><path class="cls-6" d="M464.33,251.65v.4A3.06,3.06,0,0,0,464.33,251.65Z" transform="translate(-389.76 -150.22)"/><path class="cls-6" d="M457.57,261.65c.07.76.15,1.93.14,1l0-.89C457.64,261.94,457.6,261.84,457.57,261.65Z" transform="translate(-389.76 -150.22)"/><path class="cls-6" d="M461.33,256.36a2.45,2.45,0,0,1,0-.27c0,.3,0,.58-.05.85C461.28,256.76,461.3,256.56,461.33,256.36Z" transform="translate(-389.76 -150.22)"/><path class="cls-6" d="M461.38,252.69l.1.57C461.45,253.06,461.42,252.87,461.38,252.69Z" transform="translate(-389.76 -150.22)"/><path class="cls-6" d="M466.69,250.77l.06-.9C466.66,249.87,466.7,250.33,466.69,250.77Z" transform="translate(-389.76 -150.22)"/><path class="cls-6" d="M454.36,261.42a1.49,1.49,0,0,0,.16.53C454.45,261.44,454.38,260.68,454.36,261.42Z" transform="translate(-389.76 -150.22)"/><path class="cls-6" d="M464.55,261.12a3,3,0,0,0,0-.54A2.16,2.16,0,0,0,464.55,261.12Z" transform="translate(-389.76 -150.22)"/><path class="cls-6" d="M454.71,262c0-.09,0-.14,0-.21,0,.15-.09.27-.15.21C454.58,262.33,454.64,262.56,454.71,262Z" transform="translate(-389.76 -150.22)"/><path class="cls-6" d="M473.94,251.5s0,.06,0,.11C474,251.49,474,251.48,473.94,251.5Z" transform="translate(-389.76 -150.22)"/><path class="cls-6" d="M476.06,260.45c0,.05-.06.05-.09.07S476,260.57,476.06,260.45Z" transform="translate(-389.76 -150.22)"/><path class="cls-6" d="M453,262.13c0,.06,0,.1,0,0Z" transform="translate(-389.76 -150.22)"/><path class="cls-6" d="M452.74,258.62a3.94,3.94,0,0,0,0-.43A3.53,3.53,0,0,1,452.74,258.62Z" transform="translate(-389.76 -150.22)"/><path class="cls-6" d="M455.18,256.43h0C455.17,256.26,455.17,256.29,455.18,256.43Z" transform="translate(-389.76 -150.22)"/><path class="cls-6" d="M452.9,261.73a2.61,2.61,0,0,0,.06.26A1.85,1.85,0,0,0,452.9,261.73Z" transform="translate(-389.76 -150.22)"/><path class="cls-6" d="M452.91,262.14a.59.59,0,0,1,0-.08C452.86,262.21,452.87,262.3,452.91,262.14Z" transform="translate(-389.76 -150.22)"/><path class="cls-6" d="M453,262.08s-.05,0-.08-.09a.36.36,0,0,1,0,.14Z" transform="translate(-389.76 -150.22)"/><path class="cls-6" d="M470.06,253.88a.28.28,0,0,0,0,.08C470.12,253.59,470.1,253.65,470.06,253.88Z" transform="translate(-389.76 -150.22)"/><path class="cls-6" d="M458.8,252.45s0,0,0,0v0Z" transform="translate(-389.76 -150.22)"/><path class="cls-6" d="M459,251.79c-.07,1.1-.11,1-.17.73l.06,2.56Z" transform="translate(-389.76 -150.22)"/><path class="cls-6" d="M465.57,251.45l-.12-.79a5.58,5.58,0,0,0,.14-2c0,2.77-.47.28-.49,3.06l-.07-.59s0-.13,0-.11c-.15-1.33-.11,2-.31,1.61a2.5,2.5,0,0,1-.07-.94l-.15.69c-.05-.06,0-.54,0-.49l-.23.22v-.08c0,.44-.11,1.11-.15,1.4-.06-.4,0-.3,0-.64l-.13.67c-.06-.72.05-1.42.14-1.31-.12-2.78-.11.69-.37-.92l.12-.36a8,8,0,0,0-.31-2,18.76,18.76,0,0,1,.14,3.16c0-.21-.09-.31-.17.25,0-1-.07-.74-.17-.69v-1.3a14.75,14.75,0,0,0-.15,1.63,8.45,8.45,0,0,1-.16-2c-.18-.2.12,1.63-.09,1.87-.15-.5-.25,0-.43.82a6.65,6.65,0,0,1,0-1.17l-.09,1a2.39,2.39,0,0,1,0-.51c-.07.41,0,1.31-.12,1.66,0,1.44-.26-2.1-.41-.47,0-.37,0-.8,0-1.3a17.1,17.1,0,0,0-.35,2.22l-.14-.86a14.59,14.59,0,0,1-.15,3.1c0,.47.07.89.09,1.08l-.19.71a9,9,0,0,1,0-1.21c0,.1,0,.21,0,.31a10.94,10.94,0,0,1,0-2c0,.26,0,.54.07.81,0-.79.09-1.67.08-2.44a1.63,1.63,0,0,1-.07.35c0-.21,0-.4,0-.53s0,.15-.06.48l0-1.46v.58l-.25-.91a26.51,26.51,0,0,1-.62,4.23c.07-1.07,0-1.75,0-3,.08,1.34.22-.57.37-.3a3,3,0,0,1,0-1l-.27,1.22a3,3,0,0,0-.12-1.2c.05,2.05-.2,1.36-.3,2,0-.69,0-1.39.15-1.22-.15-1.54-.19,2.4-.33,1.09,0,0,.05.09.06-.26-.07.61-.25.13-.21-.47l0,0c-.21-.24-.64,0-.67,1.73,0-.23,0-2.1,0-2.45l-.38,5.85c0-1.49-.09-5,.08-5.89-.05-.21-.11-.46-.21.06a22.34,22.34,0,0,1,0,2.3c-.12-1.66-.08-.89-.24-2.31a15.44,15.44,0,0,1-.09,2.59c0-.35,0-2.31,0-2.55l-.2,2.29a25.53,25.53,0,0,0,0-2.59c0,.45-.18-.05-.23.18l.08.53c-.22-.34-.22,3.24-.45,3.12a22.59,22.59,0,0,0-.05-3.22c-.05,1.18-.23,5.67-.43,6.57l0-.67-.15.76c.1-1.77.36-5.49.51-6.94-.09-.53,0-.79-.15-.73a1.83,1.83,0,0,1,.11-1l-.3-.4c0,1.37-.23,1.37-.22,2.52l.33-1.43c0,1.37-.19,3.9-.4,3.66-.06-.55,0-2.44,0-2.9,0,.47-.2.9-.22.56l.09-.73c-.11-.52-.19,1.82-.33.51-.05-.09-.14-1.77-.15-1,.08,1.57.09,6.42,0,7.6,0-.11-.26-1.5-.31-2.28-.08-1.22.12-2.92.05-4,0,.38-.05.84-.06,1-.06-.32,0-1.17-.09-1,0,1.4-.23-.11-.06,1.18-.1.4-.11-.28-.24-.22a21.87,21.87,0,0,1-.22,3.46c0-.36,0-.82,0-1-.22-.13-.34-.76-.55-.77a7.89,7.89,0,0,1-.08-1.34,3,3,0,0,1-.12.75c-.12-1.21.14-.19.05-1.64a7.1,7.1,0,0,1-.26,1.63c0,1.25.21.24.3-.27a20.71,20.71,0,0,1-.37,4.33c-.17.43-.08-1.12-.11-.87-.32-.3-.27,3-.54,1.76-.11-1.09,0-2.18,0-3,.14-.42.22.69.31.65l-.12-.52c0-.36.14-.64.19-.32-.09-1-.54-.19-.79-1.1a5.54,5.54,0,0,0-.09,1.19l.08-.16c.07.89-.15,1.23-.05,1.64-.1.63-.22,1.6-.37,1.1l0-1.25c0,.37.1.75.14.37-.06.55-.23-1.7-.3-.06l.11.87c-.11.63-.24,2-.37,1.56.06,1.24,0-.14.12,1.31-.08-1.8.34.07.21-1.82.1,1.68.17.71.29,2.15,0-.42,0-.79.07-.59,0-.12,0-.28,0-.36s0,0,0,0v-.05c0-.06,0-.08,0,0a5.56,5.56,0,0,1-.05-.63,6.39,6.39,0,0,1,.29-1.41c.06.2,0,.48,0,.92l.09-.74a8.8,8.8,0,0,1,0,2.06l.14.05c.09.51.2.71.27.33.07.2.17-1,.11-.3l.22-.57v.23c.22.12.44-1.52.69.14.07-.23.15-.52.27-.26l0,.8c.09-.28.28.79.32,0,.1,2.13.45.46.61.84v-1c.11.06.22-.23.36-.65v-.91c.12-.76.31.65.51.55,0,.35-.07.26-.1,0,.23,2.07.48-1.5.69,0,.05-.33.09-.22.12,0a.13.13,0,0,1,0,0h0c0,.16.05.34.08.49,0-.22-.05-.4-.07-.49s.11-.13.16-.36l0,1s0,0,0,0c.06.37.05-.46,0-1.2a5.91,5.91,0,0,0,.08-.6c0,1.59.15-.53.22,1.16a12.69,12.69,0,0,0,.33-2.36c0,.23,0,.34,0,.35.07.2.14.4.2-.09l0,1.25.15-1.68a8.57,8.57,0,0,1,0,2.17c.22-1.49.18-.56.35-2v.81c.06,0,.16-1.12.2-.45.14,1.54.71.22,1.07,1.64-.07-2.38.17,1.07.19-.77a7.87,7.87,0,0,1,0,1.37c.19-.56.28.89.41-.67,0,.57,0,.83,0,1.16,0-.12.06-.49.08-.15a3,3,0,0,1-.06.72,13.26,13.26,0,0,0,.23-3.46c.09.77.14.66.21-.41a3.15,3.15,0,0,1,0,1.28c.07.08.41.79.42-.52,0,.33.09.1.11,0,.15.07.16.19.31.07l0-.22c.06-1.57.12-.35.24-.54v.16c.27,1.14.12-.54.38.76v-1c0-2.11.24,1.24.39.43l-.05-.56c.08-.72.23,2.87.32,3.13a1.09,1.09,0,0,1-.06.43c.23,1.25,0-1.28.2-1.58a11.29,11.29,0,0,0,.07,1.89c.06.56.33-2.25.48-.92a6.5,6.5,0,0,1,0-1.47c.12-.19.32,2,.43.34a3,3,0,0,1,0,.42,6.47,6.47,0,0,0,.35-1.64c.09,3.39.57-1.64.56,1.48l.28-.17v.32c.17.21.24-.54.3-1.29a3.8,3.8,0,0,1,0,.67c.26.63.28.49.5-1.06l0,1c.06-.59.37,1.59.63.41a3.77,3.77,0,0,1,0,.45c.29-1.19.69,2.81.79-.88l.19-.9c-.24-.29,0-1.6-.06-2.22.1-.21.25,1.12.13,1.3l0-.18c0,1.92.31.68.3,2,.49-.09,1,1,1.41,1.05l0-1.49.15.08c.05.35.06,1.17-.05,1.11.06.85.19-.71.19-1,.22.6-.09,1.74,0,1.77l.09-.11,0-.17c.08-.61.08-1.26.22-1.19.08.3,0,.93.08,1s0,.16.05.05l.2.12-.08-1.18c.09-.58.19.07.09-1.27.14,2.06.75.74.83,1.38.12-.86.24-.85.4-.74,0-.25-.07-1.57.07-1.41-.05,2.74.23,1.19.34,3.16-.09-1.31.37-.33.22-2.18.11.22,0,1,.09,1.67.26-1.06.57.69.89.33a11.91,11.91,0,0,1,0-1.44l.17,1.79c.06-.17.06-2.07.17-.82a4.06,4.06,0,0,1,0-.88c.62,1.75,1.28-1.43,1.91,1.86-.08-.7,0-.77,0-.79s0-.89,0-1.38l.27,1.35c0-1.35.28-.09.31-1.38l-.08.23c.11-1.52-.16-3.39-.14-5.34-.13,1.73-.33-2.57-.54-.09,0-.4,0-.63,0-1.08-.05.83-.11,1-.23.63v-.2c-.32.2-.46-.63-.83-1.18l0,1a2.56,2.56,0,0,1-.13-.68c-.09,1.47.22.09.14,1.71-.1-2-.56,0-.63-2.27-.12,0,0,1.12-.09,1.11l0-.61,0,.78a5.66,5.66,0,0,1-.12-1.4c0,.06.05-.14.07-.19-.1-.71-.29.25-.32,0l.11.38c-.33.56-.74-.23-1.06,1l0,.46c-.25.84-.2-.5-.47-.11v-.11c-.05.45-.13.68-.2.63.07-.53-.13-1,0-1.63a9.81,9.81,0,0,0-.31,2.41l0-.76a3.08,3.08,0,0,1-.2,1.24c.11-.65-.08-1.15,0-2-.28-1.66-.42,1.67-.55-.75-.13,2.1.25,1.16.17,1.61.06.69-.1,1.57-.19,1.36-.09,0-.16-2.68-.38-2.64,0,0,0-.15,0-.14-.08-.54-.16.72-.27-.15-.06,1.27-.13-.07-.15,1.55l.21-.38c-.12.43-.23,2.32-.42,1.4a8.29,8.29,0,0,1,.11-1c-.06-.48-.11.31-.17-.18,0-1.62.25-.35.38-1.58-.06-.69-.24,1.17-.18-.58-.09,2.22-.22-.29-.37,1.42v-1c0,.15-.08.61-.12.58l.08-1.25c-.13,1.07-.24-.94-.36-.36.25,0,.05,1.17.16,1.88-.31,1.29-.18-2.54-.52-2.07,0-.14.17.58.1,1a4.63,4.63,0,0,1-.19-1.08c-.23.2,0,1-.07,1.59-.07-1.18-.11.48-.21.86v-1c-.26-.63-.07,2.06-.3,1.29l.1-1.36-.13.35,0-1.12c-.13.83-.18.61-.31.3a5.26,5.26,0,0,1-.13,1.82c-.08-.59.05-.94-.12-.8,0-.61.08-1.39.15-.48,0-.32,0-.62,0-.93-.08-.68-.21-.16-.27-.15a.46.46,0,0,1,.07.23l-.24,1.37a4.29,4.29,0,0,1,0-1,5.47,5.47,0,0,1-.15.64,12.62,12.62,0,0,1,.11-2l-.22.89a11.48,11.48,0,0,1-.09-1.26c-.13-.47-.31,1.56-.47.94a2.49,2.49,0,0,1-.06.42c-.16-.19-.3-1.17-.48-.07l-.11-1.44c-.14.33.14,1.81-.1,2.36s-.06-1.23-.12-1.63c-.09.72-.24,2.2-.39,1C465.48,251.35,465.52,251.56,465.57,251.45Zm-1.79.64c0-.21.11-.84.13-.26C463.87,253,463.84,252.42,463.78,252.09Zm-2.72,2.37c0-.32.07-.16.11.21C461.14,254.75,461.1,254.72,461.06,254.46Zm-7.57,6.87v-.05C453.57,261.66,453.55,261.51,453.49,261.33Zm-.16-.43c0,.14,0,.27,0,.41,0-.25.05-.27.09-.2C453.4,260.86,453.38,260.68,453.33,260.9Zm17.23-.39,0-.26C470.6,260,470.58,260.23,470.56,260.51Z" transform="translate(-389.76 -150.22)"/><path class="cls-6" d="M461.37,253.12c0,.16,0,.35,0,.53A2.37,2.37,0,0,0,461.37,253.12Z" transform="translate(-389.76 -150.22)"/><path class="cls-6" d="M466.68,250.94h0v0Z" transform="translate(-389.76 -150.22)"/><path class="cls-6" d="M455.82,252.54a3.41,3.41,0,0,1,.06.51A1.21,1.21,0,0,0,455.82,252.54Z" transform="translate(-389.76 -150.22)"/><path class="cls-6" d="M452.48,262.57l.1-.25c-.05.05-.06-.17-.09-.33A3.06,3.06,0,0,1,452.48,262.57Z" transform="translate(-389.76 -150.22)"/><path class="cls-6" d="M451.59,256.47c0,.12,0,0,0,.14v.46A.85.85,0,0,0,451.59,256.47Z" transform="translate(-389.76 -150.22)"/><path class="cls-6" d="M452.39,259.3c0-.83-.08-.55-.15-.4h0C452.23,260.06,452.31,259.68,452.39,259.3Z" transform="translate(-389.76 -150.22)"/><path class="cls-6" d="M452.23,258.93s-.05.06-.07,0C452.15,259.42,452.19,259.05,452.23,258.93Z" transform="translate(-389.76 -150.22)"/><path class="cls-6" d="M453.13,261.45c0-.21,0,1.06,0,.72C453.05,263.23,453.32,260.89,453.13,261.45Z" transform="translate(-389.76 -150.22)"/><polygon class="cls-6" points="62.57 106.34 62.59 107.37 62.63 106.54 62.57 106.34"/><path class="cls-6" d="M452.9,257.32l-.12-.29a1.33,1.33,0,0,1,0,.35C452.82,257.42,452.9,257.62,452.9,257.32Z" transform="translate(-389.76 -150.22)"/><path class="cls-6" d="M452.75,257.38s-.07,0-.09.17C452.68,257.54,452.72,257.51,452.75,257.38Z" transform="translate(-389.76 -150.22)"/><polygon class="cls-6" points="62.72 106.04 62.76 106.25 62.84 106.33 62.72 106.04"/><path class="cls-6" d="M454.13,257.52l.13-.3c0-.35,0-.56-.07-.42A3,3,0,0,0,454.13,257.52Z" transform="translate(-389.76 -150.22)"/><path class="cls-6" d="M453.75,254.71a6.72,6.72,0,0,1,.06.78v-1.27Z" transform="translate(-389.76 -150.22)"/><path class="cls-6" d="M454.12,254.42c0-.36.18-1,0-.93C454.13,253.83,454,254.13,454.12,254.42Z" transform="translate(-389.76 -150.22)"/><polygon class="cls-6" points="66.25 105.8 66.22 105.81 66.22 107.89 66.25 105.8"/><path class="cls-6" d="M457.68,251c-.15-.5,0,1.29-.17.66,0,.5.11.51.07.94A4,4,0,0,0,457.68,251Z" transform="translate(-389.76 -150.22)"/><path class="cls-6" d="M457.58,252.64c0,.08,0,.18,0,.31A2.39,2.39,0,0,0,457.58,252.64Z" transform="translate(-389.76 -150.22)"/><polygon class="cls-6" points="86.64 111.34 86.74 111.78 86.68 111.08 86.64 111.34"/><path class="cls-6" d="M476.59,260l0,1.33.06-1.2C476.65,260.21,476.61,260.32,476.59,260Z" transform="translate(-389.76 -150.22)"/><path class="cls-6" d="M463.52,249.42v.32c0,.34,0,.37.08.42Z" transform="translate(-389.76 -150.22)"/><polygon class="cls-6" points="75.05 100.19 75.03 100.16 75.07 101.36 75.05 100.19"/><path class="cls-6" d="M465.9,248.88s-.09.22-.14.17C465.86,248.83,465.91,250.38,465.9,248.88Z" transform="translate(-389.76 -150.22)"/><path class="cls-2" d="M496.68,192.89l-23.18,8.19-3.25,1.15c-1.11.39-3.22,2-2.07,3.3s3.85.65,5.25.15l23.18-8.19,3.25-1.15c1.11-.39,3.22-2,2.07-3.3s-3.85-.65-5.25-.15Z" transform="translate(-389.76 -150.22)"/><line class="cls-7" x1="26.9" y1="86.59" x2="37.1" y2="126.47"/><path class="cls-8" d="M416.82,236.77a22.37,22.37,0,0,1,2.37,4.71,23.08,23.08,0,0,1,1.36,5c.22,1.71.13,3.51.45,5.19a20.55,20.55,0,0,0,1.64,4.89c.35.8.74,1.59,1.05,2.39s.59,1.62.87,2.44c.54,1.63,1.09,3.26,1.47,4.93a40,40,0,0,1,1,10.37l-.32.08a40.55,40.55,0,0,1-4.11-9.57,50.12,50.12,0,0,1-1.07-5c-.16-.84-.31-1.69-.41-2.55s-.15-1.73-.23-2.59a20.59,20.59,0,0,0-.91-5.08c-.53-1.64-1.47-3.17-2.1-4.78a23.2,23.2,0,0,1-1.19-5,22.51,22.51,0,0,1-.18-5.27Z" transform="translate(-389.76 -150.22)"/><path class="cls-2" d="M503.94,241.8v2.78c0,.13,0,1.7,0,1.7s0-1.69,0-1.7V241.8c0-.13,0-1.71,0-1.71s0,1.69,0,1.71Z" transform="translate(-389.76 -150.22)"/><path class="cls-8" d="M482.31,298c-1.79,1.39-2.09,2-2,2.39s.51.26,1,.87c.32.37.31.57.82,1.8a20.23,20.23,0,0,1,1.11,2.64c.23.88.1.92.29,1.5.44,1.36,1.59,2.51,2.13,2.11s.54-2.31.11-3.71c-.53-1.74-1.51-1.85-1.79-3.62a14.45,14.45,0,0,0-.17-1.95A3.57,3.57,0,0,0,482.31,298Z" transform="translate(-389.76 -150.22)"/><path class="cls-8" d="M488.83,289.82s2.44-2,2.87,1.82-1.82,5.05-1.43,6.27S488,291.64,488.83,289.82Z" transform="translate(-389.76 -150.22)"/><path class="cls-8" d="M477.65,293.66l-.08.07c-.54.44-3.64,3.08-1.28,3.76,2.58.74,1.33-3.8,1.33-3.8" transform="translate(-389.76 -150.22)"/></svg>